<?xml version="1.0" encoding="UTF-8"?>
<!--Generator: Apple Native CoreSVG 175.5-->
<!DOCTYPE svg
PUBLIC "-//W3C//DTD SVG 1.1//EN"
       "http://www.w3.org/Graphics/SVG/1.1/DTD/svg11.dtd">
<svg version="1.1" xmlns="http://www.w3.org/2000/svg" xmlns:xlink="http://www.w3.org/1999/xlink" width="56.3393" height="57.2404">
 <g>
  <rect height="57.2404" opacity="0" width="56.3393" x="0" y="0"/>
  <path d="M49.8334 50.7833C57.1283 43.4884 58.3002 34.4356 53.2904 23.8887L46.6986 10.002C46.2298 9.03523 45.6732 8.24421 45.058 7.62898C42.8607 5.43171 39.6673 5.5489 37.558 7.65827C36.1224 9.09382 35.683 11.2325 36.6205 13.5469L38.5834 18.2344C38.6419 18.3516 38.6419 18.4688 38.5541 18.5567C38.4369 18.6446 38.3197 18.6153 38.2025 18.5274L21.5912 1.91609C19.1888-0.515553 16.1419-0.515553 13.8275 1.7989C12.9779 2.61921 12.5091 3.7032 12.4798 4.81648C10.0775 2.97077 7.41148 3.02937 5.3607 5.08015C3.33921 7.10163 3.28062 9.85554 5.00914 12.1993C3.95445 12.1993 2.95836 12.668 2.19664 13.4298C0.0579646 15.5684 0.116558 18.4981 2.40171 20.7833L4.71617 23.0977C3.57359 23.0684 2.43101 23.5958 1.55211 24.4747C-0.615864 26.6426-0.498676 29.7188 1.81578 32.0333L19.6283 49.8458C29.3255 59.543 41.0736 59.543 49.8334 50.7833ZM46.8744 48.0294C39.5502 55.3536 30.3509 55.1192 22.0306 46.7696L4.86265 29.6016C3.95445 28.7227 3.92515 27.5216 4.77476 26.6719C5.62437 25.8223 6.85484 25.8223 7.73375 26.7012L18.3392 37.2774C19.1009 38.0391 20.2142 37.9512 20.888 37.2774C21.6205 36.5743 21.7084 35.4317 20.9466 34.67L5.12632 18.8204C4.24742 17.9415 4.18882 16.7696 5.03843 15.92C5.88804 15.0411 7.14781 15.0411 8.02671 15.92L22.7923 30.7149C23.5541 31.4766 24.6966 31.3594 25.3705 30.6856C26.0736 29.9825 26.1908 28.8399 25.4291 28.0782L8.08531 10.7344C7.2064 9.85554 7.14781 8.62507 8.02671 7.77546C8.84703 6.92585 10.1068 6.95515 10.9857 7.83406L28.3294 25.1778C29.0326 25.9102 30.1752 25.8809 30.8783 25.1778C31.6107 24.4454 31.6693 23.2735 30.9662 22.5704L16.1712 7.77546C15.2923 6.89656 15.263 5.69538 16.1127 4.81648C16.9916 3.96687 18.1927 3.99617 19.0716 4.87507L39.4623 25.2657C40.4877 26.3204 41.7181 26.2911 42.5677 25.4415C43.3002 24.7091 43.6224 23.7423 43.0365 22.2188L39.3744 12.6094C38.8763 11.2911 39.3451 10.2364 40.3412 9.76765C41.4544 9.2696 42.4505 9.79695 43.0951 11.1739L49.8919 25.5294C54.433 35.1387 52.6459 42.2286 46.8744 48.0294Z" fill="#ffffff" fill-opacity="0.85"/>
 </g>
</svg>
