<?xml version="1.0" encoding="UTF-8"?>
<!--Generator: Apple Native CoreSVG 175.5-->
<!DOCTYPE svg
PUBLIC "-//W3C//DTD SVG 1.1//EN"
       "http://www.w3.org/Graphics/SVG/1.1/DTD/svg11.dtd">
<svg version="1.1" xmlns="http://www.w3.org/2000/svg" xmlns:xlink="http://www.w3.org/1999/xlink" width="83.6133" height="57.1582">
 <g>
  <rect height="57.1582" opacity="0" width="83.6133" x="0" y="0"/>
  <path d="M41.8066 57.1289C57.4219 57.1289 70.4004 44.1797 70.4004 28.5645C70.4004 12.9492 57.4219 0 41.7773 0C26.1621 0 13.2422 12.9199 13.2422 28.5645C13.2422 44.1797 26.1914 57.1289 41.8066 57.1289ZM41.8066 52.1484C28.7402 52.1484 18.252 41.6602 18.252 28.5645C18.252 15.4395 28.7109 4.95117 41.7773 4.95117C54.873 4.95117 65.3906 15.4395 65.4199 28.5645C65.4492 41.6309 54.9316 52.1484 41.8066 52.1484ZM0 28.5645C0 37.8516 3.01758 46.377 8.11523 53.3203C9.02344 54.5801 10.5762 54.6973 11.748 53.7598C12.8027 52.8516 12.9492 51.4453 12.0996 50.2734C7.64648 44.209 5.00977 36.6797 5.00977 28.5645C5.00977 20.4199 7.64648 12.9199 12.0996 6.79688C12.9492 5.68359 12.832 4.24805 11.748 3.33984C10.5762 2.40234 9.02344 2.54883 8.11523 3.7793C3.01758 10.7227 0 19.2773 0 28.5645ZM83.6133 28.5645C83.6133 19.2773 80.625 10.7227 75.498 3.7793C74.5898 2.54883 73.0371 2.40234 71.8652 3.33984C70.7812 4.24805 70.6934 5.68359 71.5137 6.79688C75.9961 12.9199 78.6035 20.4199 78.6035 28.5645C78.6035 36.6797 75.9961 44.209 71.5137 50.2734C70.6934 51.4453 70.8105 52.8516 71.8652 53.7598C73.0371 54.6973 74.5898 54.5801 75.498 53.3203C80.625 46.377 83.6133 37.8516 83.6133 28.5645ZM32.1387 42.3633C33.1934 42.3633 33.9551 41.8652 34.3945 40.4883L36.5332 34.248L47.0215 34.248L49.1602 40.4883C49.5996 41.8359 50.3613 42.3633 51.416 42.3633C52.7051 42.3633 53.584 41.5137 53.584 40.3418C53.584 39.873 53.4668 39.4629 53.2617 38.8184L45.0586 16.6992C44.4727 15.1758 43.3594 14.3848 41.748 14.3848C40.166 14.3848 39.082 15.1758 38.4961 16.6992L30.293 38.8184C30.0879 39.4629 29.9707 39.873 29.9707 40.3125C29.9707 41.543 30.8496 42.3633 32.1387 42.3633ZM37.7051 30.7324L41.6309 19.3945L41.9238 19.3945L45.8496 30.7324Z" fill="#ffffff" fill-opacity="0.85"/>
 </g>
</svg>
